<svg width="140" height="29" viewBox="0 0 140 29" fill="none" xmlns="http://www.w3.org/2000/svg">
<path d="M19.9931 7.23002L14.3131 23.15C14.1773 23.5454 13.9209 23.8882 13.5801 24.1304C13.2393 24.3725 12.8312 24.5018 12.4131 24.5C11.9999 24.5047 11.5954 24.3813 11.2551 24.1467C10.9149 23.9121 10.6557 23.5779 10.5131 23.19L8.39313 17.67L9.93313 16.13L12.4231 13.64C12.6114 13.4517 12.7172 13.1963 12.7172 12.93C12.7172 12.6637 12.6114 12.4083 12.4231 12.22C12.2348 12.0317 11.9794 11.9259 11.7131 11.9259C11.4468 11.9259 11.1914 12.0317 11.0031 12.22L8.51313 14.71L6.93313 16.26L1.42313 14.13C1.01167 14.0061 0.651062 13.7529 0.394738 13.408C0.138413 13.0631 0 12.6447 0 12.215C0 11.7853 0.138413 11.367 0.394738 11.0221C0.651062 10.6771 1.01167 10.424 1.42313 10.3L17.3831 4.62002C17.7481 4.47007 18.1493 4.43143 18.5362 4.50896C18.9231 4.5865 19.2784 4.77675 19.5574 5.05576C19.8364 5.33477 20.0267 5.69008 20.1042 6.07697C20.1817 6.46386 20.1431 6.86504 19.9931 7.23002Z" fill="white"/>
<path d="M43.878 23H39.764V12.484L35.892 16.422H35.496L31.602 12.484V23H27.51V7.16H31.03L35.694 11.604L40.336 7.16H43.878V23ZM52.2054 23.22C48.2454 23.22 45.8254 20.602 45.8254 16.928C45.8254 13.43 48.5094 11.076 51.8094 11.076C55.0434 11.076 57.3094 13.496 57.3094 16.774L57.2874 18.028H47.3874V15.85H54.6254L53.8334 16.708V16.114C53.8334 15.3 53.5914 14.244 51.8094 14.244C50.1594 14.244 49.3454 15.278 49.3454 16.928C49.3454 18.512 50.2694 19.942 52.1394 19.942C53.1294 19.942 54.1414 19.59 55.1094 18.93L56.8914 21.438C55.8574 22.516 54.2954 23.22 52.2054 23.22ZM64.6192 27.994C62.7932 27.994 60.7692 27.466 59.4052 26.454L60.7252 23.77C61.9352 24.496 63.0792 24.848 64.1572 24.848C66.2692 24.848 67.1712 23.858 67.1712 22.054V19.986H68.2052C67.8972 21.35 66.4232 22.956 63.9372 22.956C60.7472 22.956 58.4592 20.602 58.4592 17.148C58.4592 13.584 60.8132 11.142 63.8712 11.142C66.3352 11.142 68.0292 12.638 68.2492 14.31H67.2372L67.3912 11.274H70.9552V21.988C70.9552 25.926 67.9192 27.994 64.6192 27.994ZM64.7292 20.008C66.2912 20.008 67.2812 18.93 67.2812 17.17C67.2812 15.432 66.2912 14.332 64.7292 14.332C63.1672 14.332 62.1772 15.454 62.1772 17.17C62.1772 18.864 63.1232 20.008 64.7292 20.008ZM78.0018 23.198C75.0318 23.198 72.8538 20.624 72.8538 17.148C72.8538 13.452 75.1858 11.076 78.0898 11.076C80.5098 11.076 82.0498 12.858 82.3138 14.31H81.3678V11.274H85.0858V23H81.3018V19.942H82.3798C81.9618 21.482 80.5098 23.198 78.0018 23.198ZM78.9698 20.008C80.4658 20.008 81.3898 18.908 81.3898 17.148C81.3898 15.3 80.3998 14.288 78.9698 14.288C77.4958 14.288 76.5718 15.388 76.5718 17.148C76.5718 18.886 77.4958 20.008 78.9698 20.008ZM93.1044 23.198C89.8484 23.198 87.7804 21.834 86.7904 18.908L90.2884 17.698C90.8384 18.82 91.6744 19.524 92.7744 19.546C94.1164 19.546 94.6884 18.974 94.6884 18.072C94.6884 17.104 93.8744 16.444 91.8724 16.07C88.3964 15.41 86.8564 13.958 86.8564 11.428C86.8564 8.832 89.1004 6.83 92.7964 6.83C96.9104 6.83 98.7584 8.942 98.9784 11.362L95.1064 11.934C94.9744 10.724 94.1604 10.042 92.8844 10.042C91.6524 10.042 90.9704 10.57 90.9704 11.406C90.9704 12.242 91.4104 12.836 93.7204 13.254C97.4164 14.002 98.8464 15.872 98.8464 18.292C98.8464 21.438 96.4264 23.198 93.1044 23.198ZM106.582 23.22C102.622 23.22 100.202 20.602 100.202 16.928C100.202 13.43 102.886 11.076 106.186 11.076C109.42 11.076 111.686 13.496 111.686 16.774L111.664 18.028H101.764V15.85H109.002L108.21 16.708V16.114C108.21 15.3 107.968 14.244 106.186 14.244C104.536 14.244 103.722 15.278 103.722 16.928C103.722 18.512 104.646 19.942 106.516 19.942C107.506 19.942 108.518 19.59 109.486 18.93L111.268 21.438C110.234 22.516 108.672 23.22 106.582 23.22ZM124.694 23H120.954V16.136C120.954 14.926 120.382 14.266 119.282 14.266C118.16 14.266 117.39 14.86 117.39 16.026V23H113.628V11.274H117.192L117.302 14.42H116.246C116.796 12.55 118.314 11.076 120.536 11.076C122.934 11.076 124.694 12.924 124.694 15.85V23ZM131.736 23.176C128.656 23.176 126.522 20.624 126.522 17.104C126.522 13.584 128.854 11.032 131.648 11.032C134.2 11.032 135.564 12.77 135.872 14.552H134.992V6.786H138.776V23H135.278L135.036 20.074H136.026C135.828 21.46 134.222 23.176 131.736 23.176ZM132.66 20.03C134.156 20.03 135.102 18.908 135.102 17.104C135.102 15.234 134.068 14.2 132.66 14.2C131.186 14.2 130.24 15.322 130.24 17.104C130.24 18.864 131.164 20.03 132.66 20.03Z" fill="white"/>
</svg>
